<?xml version="1.0" encoding="UTF-8"?>
<svg version="1.1" xmlns="http://www.w3.org/2000/svg" width="160" height="63">
<path d="M0 0 C52.8 0 105.6 0 160 0 C160 20.79 160 41.58 160 63 C107.2 63 54.4 63 0 63 C0 42.21 0 21.42 0 0 Z " fill="#F9F9F9" transform="translate(0,0)"/>
<path d="M0 0 C18.81 0 37.62 0 57 0 C57 14.19 57 28.38 57 43 C52 38 52 38 50.5 34.6875 C48.24824713 31.68724137 48.24824713 31.68724137 44.859375 31.62109375 C41.55288266 31.6246722 38.29586608 31.74280814 35 32 C35.77537109 33.01320313 35.77537109 33.01320313 36.56640625 34.046875 C37.22511719 34.93890625 37.88382813 35.8309375 38.5625 36.75 C39.22378906 37.63171875 39.88507812 38.5134375 40.56640625 39.421875 C42 42 42 42 41.90625 44.03125 C40.79226074 46.45129563 39.45241288 48.55821115 37.9375 50.75 C37.38964844 51.54921875 36.84179688 52.3484375 36.27734375 53.171875 C35.85582031 53.77515625 35.43429688 54.3784375 35 55 C43.47310116 55.47266068 43.47310116 55.47266068 50.9375 52.41015625 C52.37224656 50.28817703 52.37224656 50.28817703 54 47 C54.99 46.67 55.98 46.34 57 46 C57 49.63 57 53.26 57 57 C47.76 57 38.52 57 29 57 C27.68 54.36 26.36 51.72 25 49 C23.47197588 46.79397843 21.89084405 44.62344524 20.25 42.5 C19.45078125 41.4584375 18.6515625 40.416875 17.828125 39.34375 C17.22484375 38.5703125 16.6215625 37.796875 16 37 C12.56767752 41.23345953 9.31265348 45.58269054 6.09179688 49.97851562 C5.08457465 51.33666285 4.04512748 52.67080135 3 54 C2.67 54 2.34 54 2 54 C2 46.08 2 38.16 2 30 C1.34 30 0.68 30 0 30 C0 20.1 0 10.2 0 0 Z " fill="#FBFCFC" transform="translate(1,3)"/>
<path d="M0 0 C9.24 0 18.48 0 28 0 C28 7.92 28 15.84 28 24 C25.4221176 21.4221176 23.44572519 19.42287264 21.421875 16.546875 C20.76445313 15.61875 20.76445313 15.61875 20.09375 14.671875 C19.6503125 14.03765625 19.206875 13.4034375 18.75 12.75 C18.29109375 12.1003125 17.8321875 11.450625 17.359375 10.78125 C16.23610442 9.18995001 15.11756944 7.59530905 14 6 C10.56767752 10.23345953 7.31265348 14.58269054 4.09179688 18.97851562 C3.08457465 20.33666285 2.04512748 21.67080135 1 23 C0.67 23 0.34 23 0 23 C0 15.41 0 7.82 0 0 Z " fill="#1A569E" transform="translate(3,34)"/>
<path d="M0 0 C0.66 0 1.32 0 2 0 C2.33 7.59 2.66 15.18 3 23 C6.96 17.39 10.92 11.78 15 6 C18.86765296 9.86765296 21.78791104 13.2164477 24.8125 17.625 C25.21919922 18.19734375 25.62589844 18.7696875 26.04492188 19.359375 C29 23.63058036 29 23.63058036 29 27 C19.43 27 9.86 27 0 27 C0 18.09 0 9.18 0 0 Z " fill="#FAFBFC" transform="translate(1,33)"/>
<path d="M0 0 C0.97839844 0.15082031 1.95679687 0.30164063 2.96484375 0.45703125 C2.47113281 1.2046875 1.97742188 1.95234375 1.46875 2.72265625 C0.50775391 4.19992188 0.50775391 4.19992188 -0.47265625 5.70703125 C-1.11074219 6.6815625 -1.74882813 7.65609375 -2.40625 8.66015625 C-4.39128222 11.87708155 -4.39128222 11.87708155 -5.03515625 15.45703125 C-3.62383431 18.09394355 -3.62383431 18.09394355 -1.59765625 20.64453125 C1.96484375 25.40615062 1.96484375 25.40615062 1.96484375 26.45703125 C-2.83820145 27.06415775 -7.25341956 27.31292624 -12.03515625 26.45703125 C-16.42287557 22.97888295 -19.2693738 18.7543786 -21.03515625 13.45703125 C-16.3914324 2.61717587 -11.75622914 -1.05193397 0 0 Z " fill="#064796" transform="translate(45.03515625,5.54296875)"/>
<path d="M0 0 C4.82829306 -0.67134974 9.19696548 -0.94005916 14 0 C17.69675614 3.10779926 20.14938313 6.5385802 22 11 C21.828125 13.0625 21.828125 13.0625 21 15 C20.54560547 16.16789062 20.54560547 16.16789062 20.08203125 17.359375 C18.60722409 20.13655033 17.42716109 21.97240658 15 24 C10.2467912 24.78779545 5.77375704 24.52969085 1 24 C2.13155072 20.93303673 3.03643905 18.95731425 5.1875 16.4375 C7.23882006 14.25343631 7.23882006 14.25343631 6.8046875 12.140625 C5.83751837 9.56776732 4.51154193 7.56378928 2.9375 5.3125 C0 1.08941176 0 1.08941176 0 0 Z " fill="#074896" transform="translate(35,34)"/>
<path d="M0 0 C19.8 0 39.6 0 60 0 C60 19.47 60 38.94 60 59 C40.2 59 20.4 59 0 59 C0 39.53 0 20.06 0 0 Z M1 1 C1 19.81 1 38.62 1 58 C19.81 58 38.62 58 58 58 C58 54.37 58 50.74 58 47 C57.67 46.67 57.34 46.34 57 46 C57.495 45.01 57.495 45.01 58 44 C58.08918777 42.61090696 58.11759541 41.21763093 58.11352539 39.82568359 C58.11334412 38.51651978 58.11334412 38.51651978 58.11315918 37.1809082 C58.10804321 36.26269287 58.10292725 35.34447754 58.09765625 34.3984375 C58.09664917 33.55514893 58.09564209 32.71186035 58.09460449 31.84301758 C58.08936476 28.68699792 58.07540353 25.53099762 58.0625 22.375 C58.041875 15.32125 58.02125 8.2675 58 1 C39.19 1 20.38 1 1 1 Z " fill="#AAAAAB" transform="translate(0,2)"/>
<path d="M0 0 C3.6837007 3.48370994 6.52018623 6.98002112 9.3125 11.25 C10.00988281 12.30703125 10.70726563 13.3640625 11.42578125 14.453125 C13 17 13 17 13 18 C5.08 18 -2.84 18 -11 18 C-9.21569985 13.53924962 -7.1275774 10.04540926 -4.375 6.1875 C-3.95476563 5.59001953 -3.53453125 4.99253906 -3.1015625 4.37695312 C-2.07220272 2.91479435 -1.0367177 1.45695101 0 0 Z " fill="#0A4A97" transform="translate(16,14)"/>
<path d="M0 0 C4.95 0 9.9 0 15 0 C11.26958004 8.18285669 6.74142774 15.09605176 1 22 C0.67 22 0.34 22 0 22 C0 14.74 0 7.48 0 0 Z " fill="#034694" transform="translate(3,35)"/>
<path d="M0 0 C2.33294775 -0.04241723 4.66702567 -0.04092937 7 0 C7.33 0.33 7.66 0.66 8 1 C7.71269945 3.33944736 7.38063221 5.6739143 7 8 C6.05125 8.309375 5.1025 8.61875 4.125 8.9375 C1.13919592 9.87394742 1.13919592 9.87394742 -1 11 C-0.67 7.37 -0.34 3.74 0 0 Z " fill="#484749" transform="translate(115,8)"/>
<path d="M0 0 C0.94875 0.04125 1.8975 0.0825 2.875 0.125 C3 6.875 3 6.875 1.875 9.125 C-1 9.25 -1 9.25 -4.125 9.125 C-4.785 8.465 -5.445 7.805 -6.125 7.125 C-5.66604657 2.53546569 -4.9886353 0.19954541 0 0 Z " fill="#49484B" transform="translate(93.125,25.875)"/>
<path d="M0 0 C0.66 0 1.32 0 2 0 C2 0.66 2 1.32 2 2 C2.99 2 3.98 2 5 2 C5 3.32 5 4.64 5 6 C5.66 6 6.32 6 7 6 C7.33 4.68 7.66 3.36 8 2 C8.66 2 9.32 2 10 2 C10.33 2.99 10.66 3.98 11 5 C11.99 4.01 12.98 3.02 14 2 C12.90931332 5.77545388 12.0916909 8.47043472 9 11 C8.67 10.01 8.34 9.02 8 8 C6.02 8.99 6.02 8.99 4 10 C3.87625 9.195625 3.7525 8.39125 3.625 7.5625 C3.41875 6.716875 3.2125 5.87125 3 5 C2.34 4.67 1.68 4.34 1 4 C1 5.98 1 7.96 1 10 C0.34 10 -0.32 10 -1 10 C-1.125 2.25 -1.125 2.25 0 0 Z " fill="#474648" transform="translate(86,6)"/>
<path d="M0 0 C0.94875 0.04125 1.8975 0.0825 2.875 0.125 C2.545 2.765 2.215 5.405 1.875 8.125 C-1 8.75 -1 8.75 -4.125 9.125 C-4.785 8.465 -5.445 7.805 -6.125 7.125 C-5.66604657 2.53546569 -4.9886353 0.19954541 0 0 Z " fill="#3D3C3E" transform="translate(83.125,25.875)"/>
<path d="M0 0 C1.65 0 3.3 0 5 0 C5 0.66 5 1.32 5 2 C5.66 2 6.32 2 7 2 C7.33 1.34 7.66 0.68 8 0 C8.33 1.32 8.66 2.64 9 4 C8.34 4 7.68 4 7 4 C7 6.31 7 8.62 7 11 C6.34 11 5.68 11 5 11 C5 8.69 5 6.38 5 4 C4.34 3.67 3.68 3.34 3 3 C3 2.34 3 1.68 3 1 C2.34 1.66 1.68 2.32 1 3 C1.99 3.66 2.98 4.32 4 5 C3.67 6.65 3.34 8.3 3 10 C1.68 10.33 0.36 10.66 -1 11 C-1.66 9.68 -2.32 8.36 -3 7 C-2.34 7 -1.68 7 -1 7 C-1 7.66 -1 8.32 -1 9 C-0.01 9 0.98 9 2 9 C2 8.01 2 7.02 2 6 C1.01 5.67 0.02 5.34 -1 5 C-0.67 3.35 -0.34 1.7 0 0 Z " fill="#464547" transform="translate(68,24)"/>
<path d="M0 0 C0.66 0 1.32 0 2 0 C1.85892253 1.45880109 1.71197585 2.91703551 1.5625 4.375 C1.48128906 5.18710937 1.40007812 5.99921875 1.31640625 6.8359375 C1 9 1 9 0 11 C-0.99 10.67 -1.98 10.34 -3 10 C-4.1875 7.4375 -4.1875 7.4375 -5 5 C-5.66 7.31 -6.32 9.62 -7 12 C-7.66 12 -8.32 12 -9 12 C-8.85892253 10.54119891 -8.71197585 9.08296449 -8.5625 7.625 C-8.48128906 6.81289063 -8.40007812 6.00078125 -8.31640625 5.1640625 C-8 3 -8 3 -7 1 C-6.01 1 -5.02 1 -4 1 C-3.34 2.65 -2.68 4.3 -2 6 C-1.34 4.02 -0.68 2.04 0 0 Z " fill="#4C4B4D" transform="translate(136,41)"/>
<path d="M0 0 C2.625 0.375 2.625 0.375 5 1 C5.33 2.32 5.66 3.64 6 5 C3.69 5 1.38 5 -1 5 C-1 5.66 -1 6.32 -1 7 C0.98 6.67 2.96 6.34 5 6 C4.01 7.485 4.01 7.485 3 9 C1.35 8.67 -0.3 8.34 -2 8 C-2.125 5.125 -2.125 5.125 -2 2 C-1.34 1.34 -0.68 0.68 0 0 Z " fill="#363537" transform="translate(133,8)"/>
<path d="M0 0 C1.1446875 0.3403125 1.1446875 0.3403125 2.3125 0.6875 C2.3125 2.0075 2.3125 3.3275 2.3125 4.6875 C0.3325 4.6875 -1.6475 4.6875 -3.6875 4.6875 C-3.6875 5.3475 -3.6875 6.0075 -3.6875 6.6875 C-1.7075 6.3575 0.2725 6.0275 2.3125 5.6875 C1.0625 7.25 1.0625 7.25 -0.6875 8.6875 C-2.875 8.375 -2.875 8.375 -4.6875 7.6875 C-5.375 5.375 -5.375 5.375 -5.6875 2.6875 C-4.0011022 -0.12316299 -3.27764429 -0.38112143 0 0 Z " fill="#5C5A5D" transform="translate(105.6875,8.3125)"/>
<path d="M0 0 C1.1446875 0.3403125 1.1446875 0.3403125 2.3125 0.6875 C2.3125 2.0075 2.3125 3.3275 2.3125 4.6875 C0.3325 4.6875 -1.6475 4.6875 -3.6875 4.6875 C-3.6875 5.3475 -3.6875 6.0075 -3.6875 6.6875 C-2.0375 6.3575 -0.3875 6.0275 1.3125 5.6875 C0.3225 7.1725 0.3225 7.1725 -0.6875 8.6875 C-2.0075 8.3575 -3.3275 8.0275 -4.6875 7.6875 C-5.375 5.375 -5.375 5.375 -5.6875 2.6875 C-4.0011022 -0.12316299 -3.27764429 -0.38112143 0 0 Z " fill="#595759" transform="translate(113.6875,44.3125)"/>
<path d="M0 0 C2.625 0.375 2.625 0.375 5 1 C5 2.32 5 3.64 5 5 C3.02 5 1.04 5 -1 5 C-1 5.66 -1 6.32 -1 7 C0.65 6.67 2.3 6.34 4 6 C4 6.66 4 7.32 4 8 C1.625 8.625 1.625 8.625 -1 9 C-1.66 8.34 -2.32 7.68 -3 7 C-2.67028521 3.70285207 -2.3773161 2.3773161 0 0 Z " fill="#59585A" transform="translate(76,44)"/>
<path d="M0 0 C2.0625 0.4375 2.0625 0.4375 4 1 C4 1.99 4 2.98 4 4 C3.34 4 2.68 4 2 4 C2 3.34 2 2.68 2 2 C1.34 2.66 0.68 3.32 0 4 C0.99 4.66 1.98 5.32 3 6 C2.67 7.65 2.34 9.3 2 11 C0.68 11.33 -0.64 11.66 -2 12 C-2.66 10.68 -3.32 9.36 -4 8 C-3.34 8 -2.68 8 -2 8 C-2 8.66 -2 9.32 -2 10 C-1.01 10 -0.02 10 1 10 C0.67 9.01 0.34 8.02 0 7 C-0.66 6.67 -1.32 6.34 -2 6 C-1.125 1.125 -1.125 1.125 0 0 Z " fill="#484749" transform="translate(69,41)"/>
<path d="M0 0 C0.66 0 1.32 0 2 0 C1.34 1.65 0.68 3.3 0 5 C0.66 5.33 1.32 5.66 2 6 C2.33 5.01 2.66 4.02 3 3 C3.33 5.64 3.66 8.28 4 11 C3.34 10.67 2.68 10.34 2 10 C2 9.34 2 8.68 2 8 C0.02463255 8.34786708 0.02463255 8.34786708 -2 9 C-2.33 9.66 -2.66 10.32 -3 11 C-3.66 11 -4.32 11 -5 11 C-3.78065514 6.96678237 -2.44045073 3.45730521 0 0 Z " fill="#484649" transform="translate(70,6)"/>
<path d="M0 0 C2.5 0.125 2.5 0.125 3.5 1.125 C3.64115161 3.79558851 3.54247107 6.44932238 3.5 9.125 C2.84 9.125 2.18 9.125 1.5 9.125 C1.83 6.815 2.16 4.505 2.5 2.125 C1.51 2.455 0.52 2.785 -0.5 3.125 C-1.72520264 6.13347418 -1.72520264 6.13347418 -2.5 9.125 C-3.16 9.125 -3.82 9.125 -4.5 9.125 C-3.50558659 0.17527933 -3.50558659 0.17527933 0 0 Z " fill="#5A5A5B" transform="translate(79.5,7.875)"/>
<path d="M0 0 C0.66 0 1.32 0 2 0 C2.66 2.31 3.32 4.62 4 7 C4.99 5.02 5.98 3.04 7 1 C7.66 1 8.32 1 9 1 C7.66749209 4.5875213 6.169283 7.8364623 4 11 C3.34 11 2.68 11 2 11 C1.34 7.37 0.68 3.74 0 0 Z " fill="#454345" transform="translate(143,41)"/>
<path d="M0 0 C1.1446875 0.3403125 1.1446875 0.3403125 2.3125 0.6875 C2.3125 1.3475 2.3125 2.0075 2.3125 2.6875 C-0.6575 2.1925 -0.6575 2.1925 -3.6875 1.6875 C-3.6875 3.3375 -3.6875 4.9875 -3.6875 6.6875 C-2.0375 6.3575 -0.3875 6.0275 1.3125 5.6875 C0.3225 7.1725 0.3225 7.1725 -0.6875 8.6875 C-2.0075 8.3575 -3.3275 8.0275 -4.6875 7.6875 C-5.375 5.375 -5.375 5.375 -5.6875 2.6875 C-4.0011022 -0.12316299 -3.27764429 -0.38112143 0 0 Z " fill="#464547" transform="translate(104.6875,44.3125)"/>
<path d="M0 0 C0.66 0 1.32 0 2 0 C2.33 0.99 2.66 1.98 3 3 C3.99 2.01 4.98 1.02 6 0 C4.90931332 3.77545388 4.0916909 6.47043472 1 9 C0.67 8.01 0.34 7.02 0 6 C-0.99 5.34 -1.98 4.68 -3 4 C-2.34 4 -1.68 4 -1 4 C-0.67 2.68 -0.34 1.36 0 0 Z " fill="#515052" transform="translate(94,8)"/>
<path d="M0 0 C1.32 0.33 2.64 0.66 4 1 C4 1.66 4 2.32 4 3 C3.67 3.33 3.34 3.66 3 4 C2.63557767 5.66014616 2.30027117 7.32706064 2 9 C0.68 8.67 -0.64 8.34 -2 8 C-1.67 7.34 -1.34 6.68 -1 6 C-0.01 6.33 0.98 6.66 2 7 C2 6.34 2 5.68 2 5 C1.01 4.67 0.02 4.34 -1 4 C-0.67 2.68 -0.34 1.36 0 0 Z " fill="#454345" transform="translate(126,8)"/>
<path d="M0 0 C0.66 0 1.32 0 2 0 C2.66 0.99 3.32 1.98 4 3 C4.99 2.01 5.98 1.02 7 0 C5.52307692 5.66153846 5.52307692 5.66153846 2.875 7.375 C1.946875 7.684375 1.946875 7.684375 1 8 C0.67 5.36 0.34 2.72 0 0 Z " fill="#4E4D4E" transform="translate(88,44)"/>
<path d="M0 0 C1.32 0.33 2.64 0.66 4 1 C3.34 1.66 2.68 2.32 2 3 C2.32041397 5.60280568 2.32041397 5.60280568 3 8 C1.68 8.33 0.36 8.66 -1 9 C-1 8.01 -1 7.02 -1 6 C-0.01 6.33 0.98 6.66 2 7 C2 6.34 2 5.68 2 5 C1.01 4.67 0.02 4.34 -1 4 C-0.67 2.68 -0.34 1.36 0 0 Z " fill="#414042" transform="translate(119,44)"/>
<path d="M0 0 C2 0 2 0 3.625 1.375 C5 3 5 3 5 5 C1.37 5 -2.26 5 -6 5 C-6 4.34 -6 3.68 -6 3 C-4.02 3 -2.04 3 0 3 C0 2.01 0 1.02 0 0 Z " fill="#D3D1D4" transform="translate(116,46)"/>
<path d="M0 0 C1.32 0 2.64 0 4 0 C3.67 1.65 3.34 3.3 3 5 C1.68 5 0.36 5 -1 5 C-0.67 3.35 -0.34 1.7 0 0 Z " fill="#F3F2F3" transform="translate(90,28)"/>
<path d="M0 0 C1.32 0 2.64 0 4 0 C3.67 1.65 3.34 3.3 3 5 C1.68 5 0.36 5 -1 5 C-0.67 3.35 -0.34 1.7 0 0 Z " fill="#F2F2F3" transform="translate(80,28)"/>
<path d="M0 0 C1.65 0.33 3.3 0.66 5 1 C5.33 2.32 5.66 3.64 6 5 C3.69 4.67 1.38 4.34 -1 4 C-0.67 2.68 -0.34 1.36 0 0 Z " fill="#8C8A8D" transform="translate(133,8)"/>
<path d="M0 0 C1.32 0.33 2.64 0.66 4 1 C3.34 2.32 2.68 3.64 2 5 C0.68 4.67 -0.64 4.34 -2 4 C-1.34 2.68 -0.68 1.36 0 0 Z " fill="#F0EFF0" transform="translate(118,10)"/>
<path d="M0 0 C0.99 0 1.98 0 3 0 C3 0.66 3 1.32 3 2 C2.34 2 1.68 2 1 2 C0.67 4.31 0.34 6.62 0 9 C-0.66 9 -1.32 9 -2 9 C-1.125 1.125 -1.125 1.125 0 0 Z " fill="#575557" transform="translate(111,8)"/>
<path d="M0 0 C5.28 0.66 10.56 1.32 16 2 C16 2.33 16 2.66 16 3 C13.70890403 3.08075665 11.41700733 3.13907731 9.125 3.1875 C7.21074219 3.23970703 7.21074219 3.23970703 5.2578125 3.29296875 C4.18273438 3.19628906 3.10765625 3.09960938 2 3 C1.34 2.01 0.68 1.02 0 0 Z " fill="#0F4E9A" transform="translate(31,29)"/>
<path d="M0 0 C1.32 0 2.64 0 4 0 C4 0.66 4 1.32 4 2 C3.34 2 2.68 2 2 2 C1.67 3.98 1.34 5.96 1 8 C0.34 8 -0.32 8 -1 8 C-0.67 5.36 -0.34 2.72 0 0 Z " fill="#4B4B4C" transform="translate(83,44)"/>
<path d="M0 0 C1.33332095 2.6666419 0.67102033 4.16680303 0 7 C-1.65 7.33 -3.3 7.66 -5 8 C-3.35 5.36 -1.7 2.72 0 0 Z " fill="#205BA0" transform="translate(12,20)"/>
<path d="M0 0 C2 0 2 0 3.625 1.375 C5 3 5 3 5 5 C3.02 5 1.04 5 -1 5 C-0.67 3.35 -0.34 1.7 0 0 Z " fill="#CAC8C9" transform="translate(123,10)"/>
</svg>
